<?xml version="1.0" encoding="utf-8"?>
<!-- Generator: Adobe Illustrator 19.0.0, SVG Export Plug-In . SVG Version: 6.00 Build 0)  -->
<svg version="1.1" id="圖層_1" xmlns="http://www.w3.org/2000/svg" xmlns:xlink="http://www.w3.org/1999/xlink" x="0px" y="0px"
	 viewBox="8 14 88 46" style="enable-background:new 8 14 88 46;" xml:space="preserve">
<style type="text/css">
	.st0{fill:#FFF470;}
</style>
<title>hey truck</title>
<desc>Created with Sketch.</desc>
<g id="hey-truck">
	<g>
		<g>
			<g id="Group-2_9_" transform="translate(1.000000, 1.000000)">
				<g id="small-title_9_" transform="translate(0.000000, 33.000000)">
					<path id="Fill-14_9_" class="st0" d="M91.4,18.5L94,24h-4.2l-1.7-4.3V24H84V14h4.1v3.9l1.8-3.9h3.8L91.4,18.5z M67.1,21.9V14
						H71v7.2c0,0.8,0,1.4-0.1,1.7c-0.1,0.3-0.3,0.7-0.7,1c-0.4,0.3-0.9,0.6-1.5,0.8c-0.6,0.2-1.3,0.3-2.1,0.3
						c-0.9,0-1.7-0.1-2.4-0.3c-0.7-0.2-1.2-0.5-1.6-0.8c-0.3-0.3-0.5-0.7-0.6-1.1c0-0.4,0-1.2,0-2.4V14h3.9v8.1c0,0.5,0,0.8,0.1,0.9
						s0.2,0.2,0.4,0.2c0.2,0,0.4-0.1,0.5-0.2C67,22.8,67.1,22.5,67.1,21.9z M13.1,14H17v10h-3.9v-4.2h-1.2V24H8V14h3.9v3.6h1.2
						C13.1,17.6,13.1,14,13.1,14z M19,14h7.7v2h-3.1v1.9h2.9v1.9h-2.9V22H27v2h-8V14z M80,14.5c0.8,0.3,1.3,0.7,1.6,1.2
						c0.3,0.5,0.4,1.2,0.4,2.2v1h-4.2V17c0-0.5,0-0.9-0.1-1s-0.3-0.2-0.6-0.2c-0.3,0-0.6,0.1-0.7,0.2c-0.1,0.2-0.1,0.5-0.1,1v5
						c0,0.5,0,0.8,0.1,1s0.3,0.2,0.6,0.2c0.3,0,0.5-0.1,0.6-0.2c0.1-0.2,0.1-0.5,0.1-1.1v-1.3H82V21c0,1.1-0.1,1.9-0.4,2.3
						c-0.2,0.5-0.8,0.9-1.6,1.2c-0.8,0.3-1.8,0.5-3,0.5s-2.3-0.1-3.1-0.4c-0.8-0.3-1.3-0.7-1.6-1.2C72.1,22.8,72,22.1,72,21v-3.1
						c0-0.8,0-1.3,0.1-1.7c0.1-0.4,0.3-0.7,0.7-1.1c0.4-0.4,1-0.6,1.7-0.8S76,14,76.9,14C78.2,14,79.2,14.2,80,14.5z M31.9,17.9
						c0.2-1.1,0.6-2.4,1.2-3.9H37l-3.1,6.4V24H30v-3.6L27,14h3.9C31.5,16,31.8,17.3,31.9,17.9z M40,16v-2h9v2h-2.4v8h-4.1v-8H40z
						 M56.3,17c0,0.4-0.1,0.7-0.3,0.8c-0.2,0.1-0.5,0.1-1,0.1v-2.2c0.5,0,0.8,0,1,0.1s0.3,0.3,0.3,0.6V17z M60,16.7
						c0-0.9-0.2-1.5-0.6-1.9s-1-0.6-1.6-0.7C57,14,55.8,14,53.9,14H51v10h4v-4.5c0.6,0,0.9,0.1,1,0.2s0.2,0.5,0.2,1V24H60v-2.6
						c0-0.8,0-1.3-0.1-1.5s-0.2-0.4-0.5-0.6s-0.8-0.4-1.6-0.5c0.9-0.1,1.5-0.2,1.8-0.5S60,17.5,60,16.7z"/>
				</g>
				<g id="title_9_">
					<path id="Fill-16_9_" class="st0" d="M75.2,33h11.1v-1.2H75.2V33z M75.2,30.2h11.1V29H75.2V30.2z M83.6,36H94v3.5
						c0,0.7-0.3,1.2-0.8,1.5c-0.4,0.3-1,0.5-1.8,0.5h-4.1L87,39.6h1.3V38h-4.7v4H78v-3.9h-4.5v3.1H68v-0.1l0,0V36h10v-1.2h-8.2v-0.1
						h-0.1v-7.5h0.1l0,0h9c0.4-0.5,0.8-1,1-1.5l4.5,0.4c-0.2,0.4-0.3,0.8-0.7,1.2h8.3l0,0l0,0v7.5l0,0v0.1h-8.3
						C83.6,34.9,83.6,36,83.6,36z M87.1,22.1l-2.7,1.7c-0.6-1-1.2-2-2.3-3.3l2.3-1.4C85.7,20.3,86.4,21.2,87.1,22.1z M94,18.7h-1.1
						v4.8c0,0.2,0,0.3,0,0.5c-0.2,2.7-6.2,2.1-6.2,2.1H86l-0.5-2.6c0.8,0.1,1.4,0.2,2,0.2v-5.1h-6v-2.4h6V14h5.4v2.2H94V18.7z
						 M81.2,23.5v1.8c-2.8,0.4-7.6,0.7-14.5,1.1l-0.2-2.1c1.7,0,3.2,0,4.7-0.1V23h-3.9v-1.7h3.9v-1.1h-4.6v-1.8h4.6v-1.2h-3.9v-1.7
						h3.9V14h5.4v1.5h3.5v1.7h-3.5v1.2h4v1.8h-4v1.1h3.5V23h-3.5v0.9C78.3,23.7,79.8,23.6,81.2,23.5z M35.5,24.8
						c0.5,0,0.7,0.1,0.7,0.7c0,0.3,0,0.5,0,0.8c0,0.7,0,0.7-0.7,0.7c-3.6,0-7.1,0-10.7,0c-0.2,0-0.4,0-0.6,0
						c-0.4-0.1-0.6,0.1-0.6,0.5c0,2.7,0,5.3,0,8v5.3v0.6h-7.1V26.9H8v-2.1c0.2,0,0.4,0,0.6,0c2.5,0,4.9,0,7.4,0
						c0.4,0,0.6-0.1,0.6-0.5c0-3.2,0-6.4,0-9.6V14h7.1c0,1.1,0,2.2,0,3.4c0,0.5,0.1,0.6,0.6,0.6c2.9,0,5.8,0,8.8,0h0.7v2.2H33
						c-2.9,0-5.8,0-8.8,0c-0.5,0-0.6,0.1-0.6,0.6c0,1.2,0,2.4,0,3.6c0,0.5,0.1,0.6,0.6,0.6C28,24.8,31.7,24.8,35.5,24.8z M32.5,29.7
						c0.8,3.2,1.7,6.4,2.5,9.7c0,0,0,0.1,0,0.2c-0.2,0-0.4,0-0.6,0c-1.8,0-3.6,0-5.4,0c-0.4,0-0.6-0.1-0.7-0.5
						c-0.6-2.2-1.2-4.4-1.8-6.7c-0.2-0.8-0.4-1.6-0.6-2.4c-0.1-0.2-0.1-0.4-0.1-0.7c0.2,0,0.4,0,0.6,0c1.8,0,3.7,0,5.5,0
						C32.2,29.3,32.4,29.4,32.5,29.7z M54.6,27.8c1,0,1.9,0,2.9,0c0.1,0,0.2,0.2,0.2,0.3c0,0.6,0.1,1.1,0,1.7c0,0.2-0.3,0.5-0.5,0.5
						c-0.8,0.1-1.7,0-2.6,0C54.6,30.3,54.6,27.8,54.6,27.8z M54.6,23.3c0-0.1,0.2-0.3,0.3-0.3c0.9,0,1.8,0,2.7,0v2.7
						c-0.9,0-1.9,0-2.8,0c-0.1,0-0.3-0.2-0.3-0.3C54.6,24.7,54.6,24,54.6,23.3z M47.5,25.7c-1,0-2,0-2.9,0c-0.1,0-0.2-0.2-0.2-0.3
						c0-0.8,0-1.6,0-2.4c1,0,2,0,2.9,0c0.1,0,0.2,0.2,0.2,0.3C47.5,24,47.5,24.8,47.5,25.7z M47.4,30.4c-1,0-1.9,0-2.8,0
						c-0.1,0-0.3-0.2-0.3-0.3c0-0.6,0-1.2,0-1.8c0-0.1,0.2-0.3,0.3-0.3c0.9,0,1.9,0,2.8,0V30.4z M65.1,35.9c0-0.8,0-0.8-0.8-0.8
						h-9.1h-0.6v-2.5h0.6c2.1,0,4.1,0,6.2,0c1.8,0,3-1.2,3-2.9c0-2.7,0-5.5,0-8.2c0-0.2,0-0.4,0-0.6h-9.8v-2.3h0.7
						c2.9,0,5.8,0,8.8,0c0.5,0,0.7-0.2,0.6-0.6c0-0.3,0-0.6,0-0.9c0-0.5-0.1-0.6-0.6-0.6c-2.9,0-5.9,0-8.8,0h-0.7V14h-7.1v2.3h-0.7
						h-7.9c-1.6,0-1.6,0-1.6,1.5c0,0.5,0.2,0.7,0.7,0.6c2.9,0,5.9,0,8.8,0c0.2,0,0.4,0,0.7,0c0,0.6,0,1.2,0,1.8
						c0,0.5-0.1,0.6-0.6,0.6c-2.9,0-5.7,0-8.6,0c-0.2,0-0.4,0-0.6,0c0,0.1-0.1,0.2-0.1,0.2c0,3.7,0,7.4,0,11.1
						c0,0.3,0.2,0.4,0.4,0.4c0.7,0,1.3,0,2,0c2.3,0,4.6,0,6.9,0c0.2,0,0.5-0.1,0.5,0.3c0,0.7,0,1.5,0,2.3h-0.6h-4.6
						c-1.6,0-3.2,0-4.8,0c-0.2,0-0.5,0.2-0.5,0.3c0,0.6,0,1.2,0,1.9h0.8c3.1,0,6.1,0,9.2,0c0.5,0,0.7,0.1,0.6,0.6c0,1,0,2,0,2.9
						c0,0.2,0,0.4,0,0.5h7.1v-4.1h5.2c1.6,0,3.3,0,4.9,0c0.4,0,0.5-0.1,0.5-0.5C65.1,36.5,65.1,36.2,65.1,35.9z"/>
				</g>
			</g>
		</g>
	</g>
</g>
</svg>
