<?xml version="1.0" encoding="UTF-8"?>
<svg width="182px" height="225px" viewBox="0 0 182 225" version="1.1" xmlns="http://www.w3.org/2000/svg" xmlns:xlink="http://www.w3.org/1999/xlink">
    <!-- Generator: Sketch 51.2 (57519) - http://www.bohemiancoding.com/sketch -->
    <title>logo</title>
    <desc>Created with Sketch.</desc>
    <defs>
        <linearGradient x1="97.2098214%" y1="123.664179%" x2="63.0537431%" y2="78.3156661%" id="linearGradient-1">
            <stop stop-color="#000000" stop-opacity="0" offset="0%"></stop>
            <stop stop-color="#434343" offset="100%"></stop>
        </linearGradient>
    </defs>
    <g id="logo" stroke="none" stroke-width="1" fill="none" fill-rule="evenodd">
        <g id="Group-7-Copy">
            <path d="M96.0992912,20.6557226 C96.098827,23.3613262 93.9195837,25.5466036 91.2186218,25.5489244 C88.5181239,25.5517094 86.3360957,23.3682886 86.334239,20.6617567 C86.3323824,17.9385149 88.5102332,15.7731965 91.265038,15.7815514 C93.8675975,15.7894422 96.0997553,17.9222692 96.0992912,20.6557226 Z M85.0637089,21.3844337 C83.753378,22.1312713 82.448617,22.8873921 81.1424635,23.6411921 C79.9774155,24.3137637 78.8132957,24.9867994 77.6487119,25.6589068 C77.6203979,25.6756167 77.5897632,25.6876849 77.5359203,25.713678 C76.2706132,22.2398853 76.2696849,18.7888366 77.537777,15.3173648 C77.6013673,15.3512486 77.6514968,15.3763134 77.6997697,15.4041632 C80.107381,16.7957226 82.5126714,18.1923877 84.9267809,19.5728072 C85.1690738,19.7115918 85.2600497,19.8383082 85.2201317,20.1242323 C85.1778929,20.4296513 85.2057426,20.7476027 85.2298791,21.0581274 C85.2419473,21.2182635 85.2080635,21.3018128 85.0637089,21.3844337 Z M97.1568256,19.669353 C98.1663791,19.0937914 99.1717553,18.5108033 100.17806,17.9296717 C101.616964,17.0988207 103.055403,16.2675056 104.494772,15.4361904 C104.560683,15.3985932 104.627986,15.3628527 104.710143,15.3173648 C105.972201,18.7902291 105.971737,22.244527 104.711536,25.7201763 C104.385693,25.5331188 104.077954,25.3576653 103.771142,25.1808194 C102.048171,24.1884398 100.325663,23.1965244 98.6036203,22.2032165 C98.1041814,21.9158999 97.6065991,21.6248699 97.1062318,21.3398741 C97.0282525,21.2953145 97.0078294,21.2488983 97.0101502,21.1583866 C97.0203618,20.7559576 97.0291809,20.3526003 97.0138635,19.9501714 C97.0087577,19.8113868 97.0342866,19.7394416 97.1568256,19.669353 Z M88.713071,26.190485 C88.8133301,26.2447921 88.8481423,26.293065 88.8481423,26.404464 C88.8448932,29.1063543 88.8458215,31.8082446 88.8458215,34.5101349 L88.8458215,35.146966 C85.1942546,34.5170974 82.2087609,32.7820577 79.8359619,29.9450961 C80.2569573,29.702339 80.6598504,29.4697936 81.0627436,29.2372481 C83.1844307,28.0127873 85.3070461,26.7897189 87.4268765,25.5615448 C87.5206374,25.5072377 87.5735519,25.5267326 87.6557087,25.576398 C88.0038306,25.7880561 88.3542734,25.9969293 88.713071,26.190485 Z M82.6580703,13.3302848 C81.7506325,12.8071736 80.844123,12.2835982 79.9371493,11.7600229 C79.9120845,11.7456338 79.8884123,11.7298523 79.8359619,11.6973609 C82.2096893,8.86689756 85.1905413,7.13000122 88.8356099,6.49827597 C88.8383949,6.55768878 88.8425724,6.60271255 88.8425724,6.64820048 C88.8425724,9.52322343 88.8421082,12.3982464 88.844429,15.2732693 C88.844429,15.3614602 88.8189001,15.4027707 88.7386,15.4468661 C88.3686624,15.6497052 88.0033665,15.8613633 87.6417838,16.0781272 C87.5665895,16.1236152 87.5183166,16.1356834 87.4380164,16.0897313 C85.8459388,15.1679044 84.2515404,14.2493267 82.6580703,13.3302848 Z M93.3006924,6.49827597 C96.9555084,7.12675209 99.9331113,8.86736172 102.31148,11.6987534 C102.058512,11.8458929 101.824574,11.9823567 101.589243,12.1178922 C99.4397065,13.3590629 97.2897055,14.5997694 95.1392403,15.840476 C94.9818892,15.9314519 94.8245381,16.0238202 94.6630095,16.1078336 C94.6314465,16.1240793 94.5692487,16.1171169 94.5400064,16.0957654 C94.1788879,15.8298003 93.790848,15.6135005 93.3833133,15.4278355 C93.3447878,15.4101973 93.3132248,15.3475353 93.3034773,15.3011191 C93.2900166,15.2366005 93.3006924,15.1669761 93.3006924,15.0996725 C93.3006924,12.5189287 93.3006924,9.93818477 93.3006924,7.35744088 L93.3006924,6.49827597 Z M98.4177933,27.6850793 C99.6659264,28.4054596 100.914988,29.1244474 102.163585,29.8443635 C102.204896,29.8680358 102.244814,29.8940289 102.309796,29.9344111 C99.938854,32.7736935 96.9547528,34.5050199 93.3022576,35.1293185 L93.3022576,34.9608275 C93.3022576,32.1721388 93.3059709,29.3839143 93.2966876,26.5952255 C93.2957593,26.3385436 93.351923,26.199759 93.6062841,26.0943941 C93.9047406,25.9709269 94.1781324,25.7801561 94.4464183,25.5954194 C94.574063,25.5076926 94.6590048,25.5095493 94.788042,25.5847436 C95.995793,26.2888782 97.2072573,26.9865146 98.4177933,27.6850793 Z M111.004487,21.2569724 C110.785867,21.2235527 110.569103,21.1803856 110.352803,21.135826 C110.318919,21.1288635 110.265076,21.0917305 110.264148,21.0671299 C110.257186,20.853151 110.260435,20.6387078 110.260435,20.4238006 C110.549608,20.3722785 110.819751,20.3277189 111.088037,20.2752686 C111.753181,20.1448389 112.191351,19.505687 112.07531,18.8386854 C111.896144,17.8119578 111.713728,16.7856944 111.536418,15.7585026 C111.482575,15.448442 111.426875,15.1411664 111.20547,14.897481 C110.851314,14.5080486 110.411752,14.4022196 109.906743,14.5071203 C109.687658,14.5526082 109.465788,14.5850996 109.244847,14.6240893 C109.161298,14.3957213 109.084247,14.1845273 109.004875,13.9672992 C109.246239,13.8257297 109.482962,13.68973 109.717364,13.5490888 C110.297104,13.2018952 110.502728,12.4541293 110.172708,11.8785677 C109.611535,10.8991847 109.047578,9.92119413 108.481764,8.94459608 C108.111362,8.30544422 107.366845,8.11188843 106.724908,8.48089767 C106.504895,8.60761405 106.284882,8.73386627 106.056978,8.86476012 C105.904733,8.68466504 105.757594,8.51060408 105.605812,8.330509 C105.78173,8.12163584 105.952542,7.92111761 106.121033,7.71827857 C106.387926,7.3980064 106.464513,7.03271046 106.388855,6.62517572 C106.31923,6.24873988 106.052801,6.01897941 105.786372,5.79293224 C104.999616,5.12360981 104.207755,4.45939317 103.414501,3.79796151 C102.832441,3.31244747 102.067965,3.38532099 101.582915,3.96459588 C101.443667,4.13030191 101.308131,4.29879293 101.163312,4.45892901 C101.135463,4.48956374 101.058412,4.51277187 101.026385,4.49606202 C100.847682,4.40462199 100.675942,4.29972125 100.49399,4.19482051 C100.582645,3.94649354 100.671764,3.70373651 100.756706,3.459587 C101.002712,2.75452406 100.680119,2.07034843 99.9829471,1.81645151 C98.9543628,1.44140815 97.9257785,1.06682896 96.8967301,0.692713926 C96.1610325,0.424892124 95.4828909,0.741450996 95.214605,1.47807699 C95.1296632,1.7110866 95.0447215,1.94409621 94.9588514,2.18081912 C94.7225927,2.13858033 94.5016513,2.09912651 94.2663209,2.05642355 C94.2663209,1.8015983 94.2658567,1.55280717 94.2663209,1.30401603 C94.2672492,0.536755303 93.7297489,0.000647535436 92.9583107,0.000183372867 C91.8670645,0.000183372867 90.7758183,-0.000744952271 89.6845721,0.00157586057 C89.5652824,0.00157586057 89.4422793,0.00993078682 89.3276311,0.0387088661 C88.7636736,0.178421799 88.3853811,0.66625666 88.3812036,1.24924485 C88.379347,1.51706665 88.3807395,1.78535261 88.3807395,2.05688772 C88.1468015,2.09959067 87.9267885,2.13950865 87.6937789,2.18174745 C87.5976972,1.92552971 87.5067214,1.67348943 87.4092472,1.42376997 C87.1446746,0.746092621 86.4702463,0.4351037 85.7879274,0.681109862 C84.7356708,1.06079484 83.6843426,1.44372896 82.6339427,1.82991222 C81.9585862,2.07823919 81.638314,2.78608711 81.8875693,3.46283614 C81.9766885,3.70466484 82.0653436,3.94742186 82.1549269,4.1924997 C81.9822585,4.29322297 81.8179449,4.38187803 81.6605938,4.48213714 C81.5802937,4.53319502 81.5297,4.52948172 81.4688947,4.45243074 C81.34125,4.290438 81.2047862,4.13494354 81.0720357,3.97619994 C80.5684193,3.37557358 79.8095135,3.31244747 79.2102796,3.81699218 C78.3757153,4.51927015 77.5397585,5.22015563 76.7010167,5.9173278 C76.1356667,6.38798865 76.0632574,7.18170664 76.5399523,7.74009421 C76.70473,7.93272168 76.8671869,8.12766996 77.0366063,8.32818819 C76.8838968,8.51292489 76.7390781,8.6888425 76.5919385,8.86708093 C76.3538231,8.72968881 76.130561,8.59879497 75.9049779,8.47207858 C75.2718602,8.11560173 74.5333775,8.30776503 74.1685458,8.9343845 C73.6101582,9.89288021 73.0601256,10.8564817 72.5063796,11.8182265 C72.1336571,12.4657333 72.3253562,13.1963252 72.9663647,13.5732252 C73.1891627,13.7041191 73.4124249,13.8350129 73.6412571,13.9691559 C73.5637419,14.1905614 73.4894759,14.4059329 73.4110325,14.6310517 C73.1311424,14.5809222 72.8549657,14.526151 72.5764682,14.483448 C71.9001833,14.3785473 71.2772771,14.8218225 71.1589157,15.4939299 C71.0637623,16.0318943 70.9816056,16.5717154 70.8869164,17.110144 C70.7852648,17.6912755 70.6734016,18.2710146 70.5712859,18.8526103 C70.4552452,19.5140419 70.8948072,20.1466955 71.556703,20.2748044 C71.8282381,20.3272548 72.1011657,20.373671 72.3810557,20.4242647 C72.3810557,20.6396362 72.3852332,20.8410827 72.3764141,21.0425293 C72.3750216,21.0754848 72.3207146,21.127471 72.2831174,21.1353618 C72.0440737,21.1868838 71.8017808,21.2258735 71.5618088,21.2736822 C70.8906297,21.4068969 70.4584944,22.0186632 70.5726783,22.6903064 C70.7620567,23.8029041 70.9593258,24.9145734 71.1565949,26.0257786 C71.2860962,26.752193 71.9048249,27.1810793 72.6349526,27.0557554 C72.8893137,27.0121241 73.1432107,26.9675645 73.3998926,26.9225407 C73.4834418,27.1513729 73.5600286,27.3625668 73.6403288,27.583044 C73.3998926,27.7218287 73.1603847,27.8536508 72.9278392,27.9961487 C72.3439227,28.3554106 72.136442,29.0720776 72.4715674,29.6675981 C73.0341325,30.6678685 73.6101582,31.6611764 74.1959314,32.6484502 C74.5538007,33.2518615 75.2964608,33.4231375 75.9059063,33.0717664 C76.1296326,32.9422651 76.3547515,32.8155487 76.5784778,32.6883681 C76.7789961,32.9845039 76.9279922,33.5619221 76.895965,33.8919417 C76.8625453,34.235422 76.7135491,34.5204178 76.4410857,34.7278985 C76.2855912,34.8462599 76.1152436,34.952089 75.9370052,35.0309966 C75.3182765,35.3048525 74.6577731,35.3976851 73.9907715,35.4612753 C73.8125331,35.4779852 73.6245472,35.5123332 73.4653395,35.5879917 C72.9199485,35.8479227 72.6437717,36.4680439 72.7834847,37.0663495 C72.9208768,37.6549076 73.4514146,38.0605857 74.0873173,38.0605857 C80.0415948,38.0605857 85.995408,38.0605857 91.9487571,38.0605857 L102.333002,38.0605857 C104.405024,38.0605857 106.477046,38.0596574 108.549067,38.0610499 C108.939892,38.061514 109.273625,37.930156 109.54516,37.6493377 C110.033459,37.1443288 110.022783,36.3594299 109.50617,35.934257 C109.331181,35.7899024 109.124165,35.671541 108.913435,35.5856709 C108.52261,35.4264631 108.118324,35.3002109 107.719609,35.1600338 C107.243842,34.9915428 106.769932,34.8193385 106.360541,34.5102062 C105.785443,34.0757501 105.654085,33.2694997 106.074152,32.690689 C106.276063,32.8067296 106.480295,32.9213777 106.68267,33.0397392 C107.371951,33.4440248 108.100222,33.2565031 108.498938,32.56815 C109.045257,31.6240434 109.590648,30.6799367 110.134647,29.7353659 C110.519437,29.0669718 110.316134,28.3303458 109.64774,27.9539099 C109.431904,27.8322993 109.21839,27.7060471 109.002554,27.5816516 C109.072643,27.3913449 109.142731,27.2172839 109.199823,27.0395097 C109.229065,26.9476055 109.273161,26.9202199 109.366922,26.9392506 C109.587863,26.9842743 109.810661,27.0218715 110.033459,27.0608612 C110.724597,27.1820076 111.364677,26.735019 111.487216,26.0452735 C111.541059,25.7426395 111.594438,25.4400055 111.647817,25.1373715 C111.789386,24.3329777 111.936062,23.5299765 112.071133,22.7246544 C112.194136,21.9935984 111.733222,21.3697639 111.004487,21.2569724 M102.361316,31.9220357 C99.7490091,34.5255236 96.5769221,36.0479768 92.9044679,36.3872797 C88.0344742,36.8370532 83.7822809,35.3596237 80.2908501,31.9220357 C77.1572886,28.8367471 75.6088422,25.0366482 75.6315862,20.6359229 C75.6752175,12.0800142 82.6808231,4.99085932 91.4818096,5.07348025 C100.105486,5.1547087 107.017795,12.1839866 107.017795,21.4751288 C106.963024,25.1118425 105.439642,28.8543853 102.361316,31.9220357 Z M12.3649471,44.572139 C11.8910371,49.0759084 9.29126254,78.0368678 16.5414819,111.2477 C18.8172709,121.674183 21.832471,131.502362 25.5564473,140.676071 L24.3923276,142.514154 C20.4014578,132.898098 17.1875962,122.564911 14.791589,111.575398 C6.88411546,75.3061994 10.6275866,44.0592394 10.6665762,43.7482505 L10.7417706,43.1411258 L64.9262522,29.7064044 C65.0831392,30.281966 65.259521,30.8491727 65.4526126,31.4089527 L12.3649471,44.572139 Z M90.5070594,213.022305 L90.1942138,212.875166 C88.5747506,212.114403 86.9803522,211.322542 85.4059127,210.505616 C86.528722,210.405821 87.6468896,210.306954 88.7594873,210.210408 C89.3791443,210.515363 90.0015863,210.816605 90.6282058,211.11274 C91.1647777,210.926611 92.3576755,210.492155 94.0648654,209.756922 C95.7762328,209.613031 97.4741395,209.473318 99.157193,209.337319 C94.1080326,211.870254 90.9215565,212.893268 90.8370789,212.918797 L90.5070594,213.022305 Z M170.627553,44.08941 C172.953936,75.881761 170.323062,104.490885 162.814304,129.147201 L161.14007,128.537755 C168.512828,104.279227 171.125135,76.1384429 168.899476,44.8622406 L116.504805,31.8707945 C116.70161,31.3124069 116.87892,30.7447361 117.03952,30.170567 L170.580208,43.4460806 L170.627553,44.08941 Z M118.111736,23.97214 C118.132623,23.5339706 118.145155,23.0934803 118.145155,22.6497409 C118.145155,21.4220309 118.055572,20.2156724 117.897293,19.0306653 L180.334585,34.5123437 L180.460373,36.2274244 C183.070823,71.9062086 180.053766,103.991446 171.492288,131.592409 C171.449121,131.731658 171.40224,131.867193 171.358609,132.005978 L166.895686,130.381873 C166.93746,130.246802 166.982948,130.115444 167.024259,129.980373 C175.224155,103.436772 178.191546,72.59549 175.849846,38.2883062 L118.111736,23.97214 Z M90.9475496,219.722956 C93.4990513,218.791382 101.574087,215.548278 111.774988,208.585839 C114.827321,208.360256 117.815136,208.146742 120.731469,207.944831 C115.674418,211.871646 111.044861,214.880348 107.259615,217.094868 C98.0515577,222.479618 91.7779365,224.465305 91.5156846,224.546998 L90.6351682,224.821318 L89.8010681,224.429565 C82.334549,220.922816 75.2950595,216.878104 68.6960602,212.313065 C71.2118214,212.061489 73.7122651,211.818732 76.193214,211.582937 C80.89843,214.556363 85.8171608,217.272642 90.9475496,219.722956 Z M10.2647784,110.77936 C13.0933851,123.714178 16.9566102,135.808398 21.8103582,146.965938 L18.7663801,151.771413 C13.1560471,139.488743 8.74418187,126.076765 5.5990163,111.652914 C-3.18201119,71.3756707 0.979670409,36.6363516 1.02283753,36.2905505 L1.22428408,34.6729439 L64.3095472,19.0306653 C64.1350221,20.2736927 64.0384762,21.5413207 64.0384762,22.8321568 C64.0384762,23.2169475 64.0514728,23.5984892 64.0677185,23.9791025 L5.56373994,38.4851111 C4.88002848,45.6949483 2.69010948,76.1421562 10.2647784,110.77936 Z M57.9920072,149.735596 L34.7634556,155.753463 L23.672291,155.854187 L34.7634556,137.48681 L37.322848,135.89009 L60.358308,129.501357 L62.0645696,129.501357 L60.6887917,141.225639 L65.4817344,130.299716 L89.4023524,135.303389 L86.8067554,149.36473 L71.4494726,147.868734 L68.8900802,151.962184 L57.9920072,149.735596 Z M154.702599,197.309474 C152.143207,198.108298 150.436945,195.712755 150.436945,195.712755 C150.436945,195.712755 152.996338,196.51065 154.702599,194.115107 C156.408861,191.719564 154.702599,186.928014 154.702599,186.928014 C158.968253,188.525197 157.261992,196.51065 154.702599,197.309474 Z M124.841629,199.705017 C126.54789,198.108298 127.401021,193.316283 127.401021,193.316283 L138.492186,193.316283 C138.492186,196.51065 141.052042,199.705017 141.052042,199.705017 L124.841629,199.705017 Z M89.0082784,198.906193 C91.5676708,198.108298 92.4212658,192.518388 92.4212658,192.518388 L97.5400506,192.518388 L97.5400506,189.324021 L108.631215,190.122381 C106.924954,194.115107 111.191072,199.705017 111.191072,199.705017 L89.0082784,198.906193 Z M83.8894936,197.309474 C79.1972742,199.305837 77.063983,194.913931 77.063983,194.913931 C77.063983,194.913931 80.9030716,195.313111 83.4629282,193.715927 C87.60233,191.132863 85.5957552,182.136928 85.5957552,182.136928 C89.0082784,185.330831 89.8047814,194.792785 83.8894936,197.309474 Z M54.028523,199.705017 C57.4410463,198.108298 57.4410463,192.518388 57.4410463,192.518388 L65.9728184,192.518388 C66.8259492,198.108298 71.9451982,199.705017 71.9451982,199.705017 L54.028523,199.705017 Z M57.8304786,186.568288 L63.2296177,185.719799 L64.4628976,182.323985 L66.9303858,181.475032 L66.545595,183.172939 L65.6971059,188.266659 L56.132572,189.115612 L57.8304786,186.568288 Z M21.2697856,176.837584 L24.0334095,177.497159 L24.0603309,179.653658 C24.0603309,179.653658 22.2036807,179.681044 21.162564,178.83534 L21.2697856,176.837584 Z M21.4276008,173.882725 L21.4540581,173.384679 C23.9726042,173.740691 24.0106655,175.674857 24.0106655,175.674857 L21.3454441,175.420496 L21.4276008,173.882725 Z M40.3904984,177.860134 L41.2394518,179.04282 L25.4472487,179.805904 L40.3904984,177.860134 Z M41.2394518,174.615174 L42.087941,175.798324 L25.4472487,177.410361 L41.2394518,174.615174 Z M42.087941,171.370677 L42.9368943,172.553828 L25.4472487,175.014817 L42.087941,171.370677 Z M45.4689011,175.288209 L52.8625467,174.431829 L52.7297962,175.560209 C50.8397262,178.575409 44.1933824,179.293932 44.1933824,179.293932 L45.4689011,175.288209 Z M54.0879359,167.966973 L53.148935,171.998225 L45.9028931,172.891274 C47.327408,168.048201 52.6499602,167.912666 54.0879359,167.966973 Z M158.968253,193.316283 L162.381241,193.316283 L160.674979,180.539745 L123.561933,176.147374 L165.806296,178.143737 L111.191072,168.561101 L169.215106,173.352651 L116.309857,162.172832 L172.627629,168.561101 L123.135367,156.582922 L176.885393,162.971191 L127.401021,150.194188 L182,158.179641 L124.841629,143.007095 L177.738059,151.791372 L121.429106,135.021642 L171.782854,145.402638 L115.456726,127.035725 L164.982872,139.014369 L108.631215,118.251449 L158.183354,132.575505 L102.658835,111.863179 L100.107798,146.201462 L97.5488697,155.287908 L99.2463122,113.460363 L96.6869198,111.863179 L60.0004387,122.194045 L59.1473079,127.834085 L64.2665568,127.035725 L91.5676708,133.424459 L91.5676708,169.359461 L105.645257,174.550655 L83.0363628,171.755468 C69.3853416,170.957108 67.67908,178.143737 67.67908,178.143737 L55.5324098,179.081346 L55.5435497,179.057673 L54.5558117,178.385566 L54.5400302,178.511818 L53.6873636,183.542876 L50.582116,189.572348 L50.4600412,189.408499 L21.3417308,189.052486 L20.7039714,187.417241 L20.7652409,186.263797 L21.3626181,187.635862 L49.1501744,187.601978 L52.9326352,182.493869 L56.3586191,165.43311 L54.6607125,165.345383 L43.7863118,167.266088 L43.0650032,168.383327 L25.3075358,171.620861 L24.8735438,170.860563 L20.7545651,171.806062 L20.3275356,184.870845 L19.8545539,180.626079 L19.0357711,181.338104 L18.1868178,186.129654 L19.8545539,191.662008 L33.4378073,192.510961 C33.4378073,198.453635 37.8306419,199.654887 37.8306419,199.654887 L8.81908881,199.302588 L24.1675525,210.934966 C51.0421011,207.341884 179.423434,199.705017 179.423434,199.705017 L156.408861,199.705017 C158.968253,198.108298 158.968253,193.316283 158.968253,193.316283 Z" id="Fill-43" fill="url(#linearGradient-1)"></path>
            <g id="Group-4" transform="translate(31.000000, 48.000000)" fill="#4A4A4A">
                <path d="M101.453201,52.1046796 L104,57.0909091 L99.8114842,57.0909091 L98.1697678,53.1938889 L98.1697678,57.0909091 L94.1162791,57.0909091 L94.1162791,48 L98.1697678,48 L98.1697678,51.5318124 L99.9750319,48 L103.77852,48 L101.453201,52.1046796 Z M29.872093,48 L37.4757843,48 L37.4757843,49.8192241 L34.4319016,49.8192241 L34.4319016,51.5434381 L37.2807793,51.5434381 L37.2807793,53.2728636 L34.4319016,53.2728636 L34.4319016,55.271685 L37.7790698,55.271685 L37.7790698,57.0909091 L29.872093,57.0909091 L29.872093,48 Z M90.1828358,48.4265764 C90.9841813,48.7105375 91.5105959,49.0647482 91.7620795,49.4892086 C92.0135632,49.9132459 92.1395349,50.5730004 92.1395349,51.4688955 L92.1395349,52.3808718 L87.9576424,52.3808718 L87.9576424,50.7126534 C87.9576424,50.2276767 87.9130465,49.9250952 87.8233951,49.804909 C87.7342035,49.6847228 87.5369704,49.6242065 87.2326155,49.6242065 C86.8878024,49.6242065 86.6694208,49.6974185 86.5770109,49.8438426 C86.4841413,49.9898434 86.4377065,50.305967 86.4377065,50.7922133 L86.4377065,55.2496826 C86.4377065,55.7164621 86.4841413,56.0203132 86.5770109,56.1625053 C86.6694208,56.3046974 86.8781477,56.3757935 87.2027317,56.3757935 C87.5139829,56.3757935 87.7176525,56.3046974 87.8137404,56.1620821 C87.9098283,56.0194668 87.9576424,55.6847228 87.9576424,55.1578502 L87.9576424,53.9517562 L92.1395349,53.9517562 L92.1395349,54.3254338 C92.1395349,55.3190859 92.0218387,56.0232755 91.7869061,56.4392721 C91.5519735,56.8544223 91.0319954,57.2183665 90.2274316,57.5315277 C89.4228679,57.8438426 88.4311856,58 87.2523848,58 C86.0271491,58 85.0175365,57.8679645 84.2226275,57.603047 C83.4281783,57.3385527 82.9017637,56.9716462 82.6433838,56.5035971 C82.3850039,56.0351248 82.255814,55.3305121 82.255814,54.390182 L82.255814,51.5865425 C82.255814,50.8950487 82.2958123,50.3762167 82.3753491,50.0304697 C82.4544263,49.6847228 82.6911979,49.3516716 83.0852042,49.0317393 C83.4792106,48.7113838 84.0253945,48.4595853 84.7242156,48.2759204 C85.4230366,48.0922556 86.2257614,48 87.1333093,48 C88.3649815,48 89.3814903,48.1421921 90.1828358,48.4265764 Z M24.0267333,48 L27.8953488,48 L27.8953488,57.0909091 L24.0267333,57.0909091 L24.0267333,53.2728636 L22.8686155,53.2728636 L22.8686155,57.0909091 L19,57.0909091 L19,48 L22.8686155,48 L22.8686155,51.2511916 L24.0267333,51.2511916 L24.0267333,48 Z M77.3785592,55.2172073 L77.3785592,48 L81.2674419,48 L81.2674419,54.545588 C81.2674419,55.2880404 81.2306736,55.8093552 81.1567096,56.1095322 C81.0827456,56.4105731 80.8642738,56.7189565 80.5008668,57.0355461 C80.1374598,57.3517039 79.6586176,57.5918455 79.0643402,57.7555392 C78.4700629,57.918801 77.7697562,58 76.9629926,58 C76.0698664,58 75.2819144,57.9036842 74.5982817,57.7097568 C73.9146489,57.5162614 73.4033139,57.2640263 73.0647041,56.9539153 C72.7260942,56.6433723 72.525579,56.3155531 72.4644412,55.9704574 C72.4028757,55.6257936 72.372093,54.9010495 72.372093,53.7957932 L72.372093,48 L76.2609757,48 L76.2609757,55.3446206 C76.2609757,55.771779 76.2964613,56.0451777 76.367005,56.1639528 C76.4379763,56.2831598 76.5812014,56.3423314 76.7966804,56.3423314 C77.0429421,56.3423314 77.2015586,56.2771131 77.2725298,56.1458126 C77.3430736,56.015376 77.3785592,55.7056969 77.3785592,55.2172073 Z M66.6953042,50.7567767 C66.6953042,51.1576458 66.6050806,51.3941585 66.4255093,51.4671167 C66.245938,51.5400749 65.9319072,51.5769548 65.4838549,51.5769548 L65.4838549,49.555372 C65.9446086,49.555372 66.2612672,49.6002694 66.4351448,49.6900641 C66.6085844,49.7798587 66.6953042,49.9690689 66.6953042,50.2572938 L66.6953042,50.7567767 Z M70.3953488,50.4817805 C70.3953488,51.1893144 70.246874,51.6647452 69.9503624,51.9080727 C69.6538508,52.1514002 69.0704631,52.2973166 68.1997613,52.3462226 C68.988123,52.4620738 69.5180774,52.617611 69.7896242,52.8120325 C70.0607331,53.006454 70.2297929,53.1856425 70.2959277,53.3483953 C70.3620625,53.5111482 70.3953488,53.9593198 70.3953488,54.6929102 L70.3953488,57.0909091 L66.6953042,57.0909091 L66.6953042,54.0699597 C66.6953042,53.5833046 66.6304833,53.2818511 66.5012796,53.1659999 C66.3720758,53.0497479 66.0326423,52.9916218 65.4838549,52.9916218 L65.4838549,57.0909091 L61.5,57.0909091 L61.5,48 L64.3201453,48 C66.1999502,48 67.4727165,48.042893 68.1384442,48.1290798 C68.803734,48.2152667 69.3463897,48.434943 69.7659733,48.7889104 C70.185557,49.1428778 70.3953488,49.7069006 70.3953488,50.4817805 Z M50.627907,49.8191439 L50.627907,48 L59.5232558,48 L59.5232558,49.8191439 L57.106202,49.8191439 L57.106202,57.0909091 L53.0355629,57.0909091 L53.0355629,49.8191439 L50.627907,49.8191439 Z M42.6462979,51.582567 C42.8784875,50.6124638 43.2673129,49.4186757 43.8132348,48 L47.6627907,48 L44.6070099,53.8005756 L44.6070099,57.0909091 L40.7252055,57.0909091 L40.7252055,53.8005756 L37.7790698,48 L41.6286257,48 C42.2302915,49.7746474 42.569362,50.9688364 42.6462979,51.582567 Z" id="Fill-14"></path>
                <path d="M38.3818677,15.3749342 C39.136209,15.3703263 39.4210586,15.5776847 39.326882,16.3241749 C39.2781699,16.7107831 39.3194592,17.1079897 39.3185313,17.5005882 C39.3162117,18.4802415 39.3157478,18.4820847 38.3591354,18.4825455 C33.3710189,18.4830063 28.3829024,18.4830063 23.3952499,18.4830063 C23.1233901,18.4830063 22.8487468,18.5092717 22.5805984,18.4774767 C21.9779604,18.4055925 21.7761533,18.621706 21.7807925,19.2470068 C21.8081641,23.0485774 21.7947102,26.8501481 21.7942463,30.6517188 L21.7942463,38.1567105 L21.7942463,39.0243902 L11.936778,39.0243902 L11.936778,18.4802415 L0,18.4802415 L0,15.452348 C0.296447771,15.4316122 0.579441731,15.3947485 0.861971767,15.3942877 C4.29454932,15.3906013 7.72712688,15.377699 11.1592405,15.404886 C11.7753323,15.4099548 11.9506958,15.2316265 11.9479122,14.6210712 C11.9237881,10.0591864 11.9349223,5.4973016 11.9349223,0.935416786 L11.9349223,0 L21.7947102,0 C21.7947102,1.61877792 21.826721,3.20898645 21.7789368,4.79689101 C21.7589881,5.45260435 21.9598674,5.62217744 22.6098256,5.61756948 C26.6840108,5.5885393 30.7586599,5.60282399 34.833309,5.60282399 L35.7463125,5.60282399 L35.7463125,8.69384655 L34.833309,8.69384655 C30.7586599,8.69384655 26.6844747,8.70859204 22.6098256,8.67956186 C21.9598674,8.6749539 21.7608438,8.84452699 21.7789368,9.50024033 C21.8253293,11.1909025 21.8234736,12.885251 21.7794007,14.576374 C21.7631634,15.2196458 21.94363,15.409494 22.6028668,15.4062684 C27.8623791,15.3804638 33.1223554,15.40719 38.3818677,15.3749342 Z M34.2031603,22.4133235 C35.3768894,27.0152976 36.5608248,31.6149677 37.7391931,36.2160202 C37.7563583,36.2828357 37.7410488,36.3579455 37.7410488,36.556088 C37.4274358,36.5754415 37.1634627,36.6053932 36.8994897,36.605854 C34.4058953,36.6095404 31.9118371,36.5920301 29.4187067,36.6196779 C28.8336979,36.6265899 28.5414254,36.4699191 28.3929696,35.8736485 C27.5982669,32.6909274 26.7641306,29.5178831 25.9434481,26.3416132 C25.6432889,25.1804061 25.3380266,24.0201207 25.0425067,22.8575312 C24.9719901,22.579671 24.9302369,22.2948988 24.8569369,21.9216537 C25.1626631,21.8930843 25.3950893,21.8525342 25.6279794,21.8520734 C28.1953377,21.8474654 30.76316,21.8580638 33.3309822,21.8414751 C33.7837726,21.8387103 34.0806843,21.932252 34.2031603,22.4133235 Z M64.988135,19.7818004 C66.3473614,19.7818004 67.6894293,19.772591 69.0310335,19.7997588 C69.1372303,19.8016007 69.3241181,20.050715 69.3282918,20.1902375 C69.354725,20.9960604 69.4029542,21.8110927 69.2995398,22.6044829 C69.2629042,22.8849092 68.8353345,23.312686 68.5626545,23.3315653 C67.3930985,23.4126081 66.2147313,23.3661006 64.988135,23.3661006 L64.988135,19.7818004 Z M65.0391466,13.3066683 C65.0465664,13.1399781 65.3428973,12.8535656 65.5130904,12.8480399 C66.7410779,12.807979 67.9709204,12.8268583 69.3004673,12.8268583 L69.3004673,16.6750079 C67.9903975,16.6750079 66.6956312,16.6874406 65.4022562,16.6561286 C65.2710173,16.6529053 65.0405378,16.3895164 65.0354366,16.2407845 C65.0015835,15.2632062 64.9941636,14.2833256 65.0391466,13.3066683 Z M55.0775153,16.6768498 C53.657075,16.6768498 52.334948,16.6860592 51.012821,16.6602728 C50.8982768,16.6579705 50.6937668,16.4245121 50.6905206,16.29512 C50.6650148,15.1770983 50.6756809,14.0581557 50.6756809,12.8337654 C52.0896287,12.8337654 53.4326241,12.824556 54.7746921,12.8517237 C54.8781064,12.854026 55.0612843,13.1100475 55.0645305,13.2514118 C55.0886451,14.347331 55.0775153,15.444171 55.0775153,16.6768498 Z M55.0214026,23.3734681 C53.6644949,23.3734681 52.3650912,23.3877427 51.0670787,23.3527469 C50.9316662,23.3490632 50.6974767,23.058967 50.6905206,22.8945791 C50.6524938,22.0164624 50.6524938,21.1346619 50.6905206,20.2565452 C50.6974767,20.0921574 50.9316662,19.8020611 51.0670787,19.7988378 C52.3650912,19.7633816 53.6644949,19.7776562 55.0214026,19.7776562 L55.0214026,23.3734681 Z M79.66138,31.2392203 C79.66138,30.0710074 79.6609163,30.0705469 78.5205759,30.0705469 L65.8553316,30.0705469 L64.9909175,30.0705469 L64.9909175,26.466907 L65.849303,26.466907 C68.7379488,26.4664465 71.6265947,26.4715117 74.5147768,26.4646047 C77.0208359,26.4581581 78.6759293,24.8110561 78.6805667,22.3130052 C78.6879866,18.3907199 78.6838129,14.4684346 78.6805667,10.5461493 C78.6805667,10.2901279 78.6471773,10.0345669 78.6249177,9.70855401 L64.9974098,9.70855401 L64.9974098,6.38810329 L65.9383414,6.38810329 C70.0118467,6.38810329 74.0858159,6.37014495 78.1588575,6.40421975 C78.8883229,6.41020586 79.132251,6.18503593 79.0566611,5.48742355 C79.0093595,5.05135826 79.0135331,4.6023998 79.0557336,4.16541356 C79.1197299,3.50648069 78.8980615,3.27762699 78.1954931,3.28315263 C74.0978732,3.31538555 69.9993257,3.29880862 65.901242,3.29880862 L64.9297036,3.29880862 L64.9297036,0 L55.0608206,0 L55.0608206,3.29880862 L54.0827897,3.29880862 L43.1213318,3.29880862 C40.9102122,3.29880862 40.9459203,3.29972956 40.9023286,5.47775368 C40.8865614,6.25410646 41.1555315,6.40882445 41.8785045,6.40329881 C45.9765882,6.37106589 50.0746719,6.38718235 54.1732193,6.3894847 C54.4584204,6.38994517 54.7440851,6.41342915 55.0802977,6.42862467 C55.0802977,7.32562065 55.0348511,8.13558776 55.0946737,8.93818734 C55.1438303,9.61093433 54.8887725,9.75229868 54.2543741,9.74769398 C50.2550673,9.72098671 46.2557606,9.7334194 42.2559901,9.73618222 C41.9707891,9.73664269 41.685588,9.76196856 41.4180092,9.77532219 C41.3785912,9.92635642 41.3442743,9.99542696 41.3442743,10.064958 C41.3391731,15.359905 41.3410281,20.654852 41.3280433,25.9502594 C41.3271159,26.3987574 41.5395095,26.4765769 41.9197775,26.4705908 C42.8579266,26.4563162 43.7960756,26.466907 44.7342247,26.466907 C47.9437797,26.466907 51.1533346,26.4636837 54.3624259,26.4724327 C54.6462357,26.4733536 55.0691679,26.3218589 55.0728779,26.8523206 C55.0807615,27.8980484 55.0756603,28.9437763 55.0756603,30.0705469 L54.1787842,30.0705469 L47.735096,30.0705469 C45.5133104,30.0705469 43.2910611,30.0585747 41.0692756,30.0875843 C40.8234926,30.0908076 40.3801557,30.3099914 40.3690259,30.4555 C40.3031746,31.3248678 40.3361003,32.202524 40.3361003,33.1593811 L41.3925034,33.1593811 C45.6635627,33.1593811 49.934622,33.1764185 54.2056812,33.1432647 C54.9319004,33.1372785 55.1234257,33.355081 55.0960649,34.0517724 C55.0427347,35.4474576 55.0784428,36.8463661 55.0821527,38.2434328 C55.0830802,38.5008356 55.1081222,38.7586989 55.1224982,39.0243902 L64.9644842,39.0243902 L64.9644842,33.1593811 L72.1710272,33.1593811 C74.4424331,33.1593811 76.713839,33.1483298 78.9852449,33.1672091 C79.4958243,33.1713533 79.7072904,33.0046631 79.6674087,32.4889365 C79.6349468,32.0745133 79.66138,31.6554854 79.66138,31.2392203 Z M93.8119034,27.1201347 L109.341249,27.1201347 L109.341249,25.4566785 L93.8119034,25.4566785 L93.8119034,27.1201347 Z M93.8119034,23.1106738 L109.341249,23.1106738 L109.341249,21.4472175 L93.8119034,21.4472175 L93.8119034,23.1106738 Z M105.458796,31.4279551 L120,31.4279551 L120,36.4178698 C120,37.3842457 119.634004,38.1094817 118.90248,38.5931238 C118.316793,39.0472478 117.482435,39.2752181 116.399873,39.2752181 L110.736988,39.2752181 L110.210197,36.5886204 L112.028958,36.6558308 L112.028958,34.4133664 L105.458796,34.4133664 L105.458796,40 L97.6943567,40 L97.6943567,34.4133664 L91.4228811,34.4133664 L91.4228811,38.839259 L83.6584418,38.839259 L83.6584418,38.7634203 L83.6065574,38.7634203 L83.6065574,31.4279551 L97.6943567,31.4279551 L97.6943567,29.7644989 L86.1965735,29.7644989 L86.1965735,29.5551477 L86.0474641,29.5551477 L86.0474641,18.819656 L86.1965735,18.819656 L86.1965735,18.7606199 L98.6988585,18.7606199 C99.3135258,18.0503699 99.7814208,17.3251339 100.103946,16.5853659 L106.452547,17.0971636 C106.130022,17.7229465 106.019709,18.2774319 105.522366,18.7606199 L117.058478,18.7606199 L117.058478,18.819656 L117.105689,18.819656 L117.105689,29.5551477 L117.058478,29.5551477 L117.058478,29.7644989 L105.458796,29.7644989 L105.458796,31.4279551 Z M110.382326,11.5800263 L106.644025,14.0742325 C105.790776,12.5788114 104.914357,11.189517 103.435029,9.31966636 L106.704452,7.3000439 C108.410949,9.05503885 109.443662,10.2858324 110.382326,11.5800263 Z M120,6.77359136 L118.425716,6.77359136 L118.425716,13.6341514 C118.444343,13.8601874 118.446615,14.1068975 118.425716,14.3830105 C118.135393,18.198976 109.801908,17.3880948 109.801908,17.3880948 L108.820536,17.3880948 L108.137664,13.6773372 C109.209904,13.8583498 110.121762,13.9667735 110.878237,14.0058245 L110.878237,6.77359136 L102.462516,6.77359136 L102.462516,3.40831964 L110.878237,3.40831964 L110.878237,0.29389274 L118.425716,0.29389274 L118.425716,3.40831964 L120,3.40831964 L120,6.77359136 Z M102.163652,13.5047321 L102.163652,16.050853 C98.2945017,16.5971067 91.5666504,17.1010934 81.9805528,17.5609756 L81.6393443,14.540271 C83.9428428,14.5182187 86.1395716,14.4690604 88.2372546,14.3941745 L88.2372546,12.6851218 L82.8338014,12.6851218 L82.8338014,10.3117439 L88.2372546,10.3117439 L88.2372546,8.80162125 L81.8097214,8.80162125 L81.8097214,6.25595973 L88.2372546,6.25595973 L88.2372546,4.57309416 L82.8338014,4.57309416 L82.8338014,2.2001756 L88.2372546,2.2001756 L88.2372546,0 L95.7842789,0 L95.7842789,2.2001756 L100.67024,2.2001756 L100.67024,4.57309416 L95.7842789,4.57309416 L95.7842789,6.25595973 L101.310404,6.25595973 L101.310404,8.80162125 L95.7842789,8.80162125 L95.7842789,10.3117439 L100.67024,10.3117439 L100.67024,12.6851218 L95.7842789,12.6851218 L95.7842789,14.0307711 C98.0650605,13.8814587 100.19273,13.7064186 102.163652,13.5047321 Z" id="Fill-16"></path>
            </g>
        </g>
    </g>
</svg>