<?xml version="1.0" encoding="UTF-8"?>
<svg width="42px" height="42px" viewBox="0 0 42 42" version="1.1" xmlns="http://www.w3.org/2000/svg" xmlns:xlink="http://www.w3.org/1999/xlink">
    <!-- Generator: Sketch 51.2 (57519) - http://www.bohemiancoding.com/sketch -->
    <title>mission</title>
    <desc>Created with Sketch.</desc>
    <defs></defs>
    <g id="mission" stroke="none" stroke-width="1" fill="none" fill-rule="evenodd">
        <g id="Group-10" transform="translate(2.000000, 2.000000)">
            <g id="Group-9">
                <g id="Group-2" fill-rule="nonzero" stroke="#2F4F8A">
                    <circle id="Oval" stroke-width="1.8" cx="19" cy="19" r="19"></circle>
                    <circle id="Oval" stroke-width="0.9" cx="19" cy="19" r="16.55"></circle>
                </g>
                <path d="M6,20.7225317 L8.71139834,15.4011129 C8.79458525,15.2378494 8.96001133,15.1439518 9.13150362,15.1441702 C9.21707702,15.0552953 9.33728106,15 9.4704,15 L12.5296,15 C12.7893947,15 13,15.2106053 13,15.4704 L13,10.5296 L13,9.4704 C13,9.21060525 13.2106053,9 13.4704,9 L28.5296,9 C28.7893947,9 29,9.21060525 29,9.4704 L29,10.5296 C29,10.7893947 28.7893947,11 28.5296,11 L15,11 L15,21 L28.5296,21 C28.7893947,21 29,21.2106053 29,21.4704 L29,21.5 L29.0296,21.5 C29.2893947,21.5 29.5,21.7106053 29.5,21.9704 L29.5,26.0296 C29.5,26.2893947 29.2893947,26.5 29.0296,26.5 L29,26.5 L29,26.5296 C29,26.7893947 28.7893947,27 28.5296,27 L25.9499909,27 C25.7183558,28.1411202 24.709479,29 23.5,29 C22.290521,29 21.2816442,28.1411202 21.0500091,27 L12.9499909,27 C12.7183558,28.1411202 11.709479,29 10.5,29 C9.29052104,29 8.28164422,28.1411202 8.05000906,27 L6.4704,27 C6.21060525,27 6,26.7893947 6,26.5296 L6,26.3905558 L6,20.7225317 Z M21.4998169,25 C21.9559201,24.3927766 22.6820911,24 23.5,24 C24.3179089,24 25.0440799,24.3927766 25.5001831,25 L27.5,25 L27.5,23 L7.5,23 L7.5,25 L8.49981691,25 C8.95592007,24.3927766 9.68209108,24 10.5,24 C11.791538,24 12.8543301,24.9793776 12.9862245,26.235981 C12.9953218,26.1585861 13,26.0798394 13,26 C13,25.6357129 12.9026057,25.2941734 12.7324356,25 L21.4998169,25 Z M10.1413771,17 L8.10327534,21 L13,21 L13,16.5296 C13,16.7893947 12.7893947,17 12.5296,17 L10.1413771,17 Z M29.5296,20 L22.4704,20 C22.2106053,20 22,19.7893947 22,19.5296 L22,18.4704 C22,18.2106053 22.2106053,18 22.4704,18 L29.5296,18 C29.7893947,18 30,18.2106053 30,18.4704 L30,19.5296 C30,19.7893947 29.7893947,20 29.5296,20 Z M31.5296,16 L24.4704,16 C24.2106053,16 24,15.7893947 24,15.5296 L24,14.4704 C24,14.2106053 24.2106053,14 24.4704,14 L31.5296,14 C31.7893947,14 32,14.2106053 32,14.4704 L32,15.5296 C32,15.7893947 31.7893947,16 31.5296,16 Z" id="Combined-Shape" fill="#2F4F8A"></path>
            </g>
        </g>
    </g>
</svg>