<?xml version="1.0" encoding="UTF-8"?>
<svg width="42px" height="42px" viewBox="0 0 42 42" version="1.1" xmlns="http://www.w3.org/2000/svg" xmlns:xlink="http://www.w3.org/1999/xlink">
    <!-- Generator: Sketch 51.2 (57519) - http://www.bohemiancoding.com/sketch -->
    <title>ok</title>
    <desc>Created with Sketch.</desc>
    <defs></defs>
    <g id="ok" stroke="none" stroke-width="1" fill="none" fill-rule="evenodd">
        <g id="Group" transform="translate(2.000000, 2.000000)" fill-rule="nonzero" stroke="#2F4F8A">
            <g id="Group-5">
                <circle id="Oval" stroke-width="1.8" cx="19" cy="19" r="19"></circle>
                <circle id="Oval" stroke-width="0.9" cx="19" cy="19" r="16.55"></circle>
            </g>
            <g id="Group-8" transform="translate(11.000000, 5.000000)">
                <path d="M2.4777832,27.4833984 L2.4777832,17 C2.89998372,15.4796549 3.5222168,14.4796549 4.34448242,14 C5.16674805,13.5203451 7.2101237,11.8536784 10.4746094,9 L16.8374023,10.5854492 C18.2298177,12.1469727 17.8076172,13.1064453 15.5708008,13.4638672 C13.3339844,13.8212891 12.0250651,13.4553223 11.644043,12.3659668 C10.800293,14.3741048 10.141276,15.3781738 9.66699219,15.3781738 C8.95556641,15.3781738 9.85522461,18.8842773 12.3464355,18 C14.0072428,17.4104818 15.0820312,16.0771484 15.5708008,14 C17.2089844,13.5976562 18.1376139,13.9309896 18.3566895,15 C18.575765,16.0690104 18.4353027,17.4023438 17.9353027,19 C16.5279134,22.237793 14.7980143,24.237793 12.7456055,25 C10.6931966,25.762207 9.93619792,26.719401 10.4746094,27.871582" id="Path-2"></path>
                <path d="M7.5222168,11.4775391 L9.63769531,1.95385742 C7.97526042,0.290934245 6.88203939,0.290934245 6.35803223,1.95385742 C5.83402507,3.6167806 4.74080404,7.96549479 3.07836914,15" id="Path-3"></path>
                <path d="M2.93481445,15.4821777 L2.93481445,2.5 C3.90763346,1.52718099 4.90193685,1.69384766 5.91772461,3" id="Path-4"></path>
                <path d="M2.41821289,16.3818359 L0.647460937,7 C0.530598958,5.80126953 1.27693685,5.33927409 2.88647461,5.61401367" id="Path-5"></path>
            </g>
        </g>
    </g>
</svg>